<svg xmlns="http://www.w3.org/2000/svg" fill="none" viewBox="0 0 160 160" aria-label="Hollow Dobt monochrome logo">
  <defs>
    <clipPath id="hollow-badge-clip">
      <circle cx="80" cy="80" r="74" />
    </clipPath>
  </defs>

  <circle cx="80" cy="80" r="74" fill="currentColor" />

  <g clip-path="url(#hollow-badge-clip)">
    <path fill="#fff" d="M17 132c7-17 16-32 29-44s28-19 45-21c8-1 15 0 22 3-20 5-34 19-42 42l-7 20H17Z" />
    <path fill="#fff" d="M39 97c-7-18-5-40 7-56 10-13 26-21 42-20 12 1 24 7 32 16-13-3-27 0-38 8-12 8-20 20-23 34-2 10-1 20 4 30-9 1-18-2-24-12Z" />
    <path fill="#fff" d="M61 65c8-9 20-14 32-13 9 1 17 6 22 13-11-1-21 2-29 9-5 4-9 9-11 15-4-3-7-7-9-12-2-4-3-8-2-12h-3Z" />
    <path fill="#fff" d="M88 40l9-9 15 3 2 10-9 6-12-4-5-6Z" />
    <path fill="#fff" d="M48 110l12 12 14-8-8-11-18 7Z" />
  </g>

  <path d="M75 78c6-3 12-2 17 1" stroke="currentColor" stroke-width="3" stroke-linecap="round" />
  <circle cx="92" cy="76" r="2.8" fill="currentColor" />
  <path d="M82 93c6 2 12 1 17-2" stroke="currentColor" stroke-width="3" stroke-linecap="round" />

  <g transform="translate(96 42)">
    <path fill="#fff" d="M20 8c17 0 31 14 31 31s-14 31-31 31c-6 0-11-2-16-4 7-7 10-15 11-25 1-11 5-22 10-33h-5Z" />
    <path d="M25 22l6-10 6 10Z" fill="currentColor" />
    <path d="M39 38a5 5 0 1 1 0 10 5 5 0 0 1 0-10Z" fill="currentColor" />
    <path d="M17 50c7 5 16 6 24 3" stroke="currentColor" stroke-width="3" stroke-linecap="round" />
    <path d="M16 42c4-2 8-2 11 0" stroke="currentColor" stroke-width="2.5" stroke-linecap="round" />
    <path d="M28 56l3-3 3 3 3-3 3 3" stroke="currentColor" stroke-width="2" stroke-linecap="round" stroke-linejoin="round" />
  </g>
</svg>
