<svg xmlns="http://www.w3.org/2000/svg" fill="none" viewBox="0 0 160 160" aria-label="Hollow Dobt monochrome logo">
  <circle cx="80" cy="80" r="74" fill="#fff"/>
  <circle cx="80" cy="80" r="74" stroke="currentColor" stroke-width="4"/>

  <path d="M34 115c7-23 24-39 46-45" stroke="currentColor" stroke-width="4" stroke-linecap="round"/>
  <path d="M55 56c8-15 29-23 47-17 18 7 29 26 24 44-6 22-32 34-54 27" stroke="currentColor" stroke-width="4" stroke-linecap="round"/>
  <path d="M61 66c9-8 20-12 31-9 9 3 15 11 16 20" stroke="currentColor" stroke-width="3" stroke-linecap="round"/>

  <path d="M74 84c5-2 10-2 14 1" stroke="currentColor" stroke-width="3" stroke-linecap="round"/>
  <circle cx="90" cy="79" r="2.8" fill="currentColor"/>
  <path d="M84 95c5 2 10 2 15-1" stroke="currentColor" stroke-width="3" stroke-linecap="round"/>

  <path d="M73 40l8-7 11 6-2 10" stroke="currentColor" stroke-width="3" stroke-linecap="round" stroke-linejoin="round"/>
  <path d="M50 101l11 13 17-8" stroke="currentColor" stroke-width="3" stroke-linecap="round" stroke-linejoin="round"/>

  <g transform="translate(108 98)">
    <rect x="0" y="0" width="32" height="42" rx="3" fill="#fff" stroke="currentColor" stroke-width="3"/>
    <path d="M16 9c-4 4-5 8-5 10 0 4 2 6 5 10 3-4 5-6 5-10 0-2-1-6-5-10Z" fill="currentColor"/>
    <path d="M16 30v5" stroke="currentColor" stroke-width="3" stroke-linecap="round"/>
  </g>

  <g transform="translate(23 24)">
    <path d="M8 24h20l-4-8 5-5-6-4-5 4-5-4-6 4 5 5-4 8Z" fill="#fff" stroke="currentColor" stroke-width="2.5" stroke-linejoin="round"/>
    <path d="M16 14v10" stroke="currentColor" stroke-width="2.5" stroke-linecap="round"/>
  </g>
</svg>
